<svg xmlns="http://www.w3.org/2000/svg" version="1.1" xmlns:xlink="http://www.w3.org/1999/xlink" xmlns:svgjs="http://svgjs.dev/svgjs" viewBox="0 0 800 800" width="800" height="800"><g stroke-width="1" stroke="hsla(210, 9%, 59%, 1)" fill="none"><rect width="33.333333333333336" height="2.263157894736842" x="-16.666666666666668" y="-1.131578947368421" stroke="none" fill="#3b82f6" rx="1.131578947368421" transform="rotate(45, 0, 0)"></rect><rect width="2.263157894736842" height="33.333333333333336" x="-1.131578947368421" y="-16.666666666666668" stroke="none" fill="#3b82f6" rx="1.131578947368421" transform="rotate(45, 0, 0)"></rect><rect width="33.333333333333336" height="2.263157894736842" x="50" y="-1.131578947368421" stroke="none" fill="hsla(210, 9%, 59%, 1)" rx="1.131578947368421" transform="rotate(45, 66.66666666666667, 0)"></rect><rect width="2.263157894736842" height="33.333333333333336" x="65.53508771929825" y="-16.666666666666668" stroke="none" fill="hsla(210, 9%, 59%, 1)" rx="1.131578947368421" transform="rotate(45, 66.66666666666667, 0)"></rect><rect width="33.333333333333336" height="2.263157894736842" x="116.66666666666667" y="-1.131578947368421" stroke="none" fill="#3b82f6" rx="1.131578947368421" transform="rotate(45, 133.33333333333334, 0)"></rect><rect width="2.263157894736842" height="33.333333333333336" x="132.20175438596493" y="-16.666666666666668" stroke="none" fill="#3b82f6" rx="1.131578947368421" transform="rotate(45, 133.33333333333334, 0)"></rect><rect width="33.333333333333336" height="2.263157894736842" x="183.33333333333334" y="-1.131578947368421" stroke="none" fill="hsla(210, 9%, 59%, 1)" rx="1.131578947368421" transform="rotate(45, 200, 0)"></rect><rect width="2.263157894736842" height="33.333333333333336" x="198.8684210526316" y="-16.666666666666668" stroke="none" fill="hsla(210, 9%, 59%, 1)" rx="1.131578947368421" transform="rotate(45, 200, 0)"></rect><rect width="33.333333333333336" height="2.263157894736842" x="250.00000000000003" y="-1.131578947368421" stroke="none" fill="#3b82f6" rx="1.131578947368421" transform="rotate(45, 266.6666666666667, 0)"></rect><rect width="2.263157894736842" height="33.333333333333336" x="265.53508771929825" y="-16.666666666666668" stroke="none" fill="#3b82f6" rx="1.131578947368421" transform="rotate(45, 266.6666666666667, 0)"></rect><rect width="33.333333333333336" height="2.263157894736842" x="316.6666666666667" y="-1.131578947368421" stroke="none" fill="hsla(210, 9%, 59%, 1)" rx="1.131578947368421" transform="rotate(45, 333.33333333333337, 0)"></rect><rect width="2.263157894736842" height="33.333333333333336" x="332.20175438596493" y="-16.666666666666668" stroke="none" fill="hsla(210, 9%, 59%, 1)" rx="1.131578947368421" transform="rotate(45, 333.33333333333337, 0)"></rect><rect width="33.333333333333336" height="2.263157894736842" x="383.33333333333337" y="-1.131578947368421" stroke="none" fill="#3b82f6" rx="1.131578947368421" transform="rotate(45, 400.00000000000006, 0)"></rect><rect width="2.263157894736842" height="33.333333333333336" x="398.8684210526316" y="-16.666666666666668" stroke="none" fill="#3b82f6" rx="1.131578947368421" transform="rotate(45, 400.00000000000006, 0)"></rect><rect width="33.333333333333336" height="2.263157894736842" x="450.00000000000006" y="-1.131578947368421" stroke="none" fill="hsla(210, 9%, 59%, 1)" rx="1.131578947368421" transform="rotate(45, 466.66666666666674, 0)"></rect><rect width="2.263157894736842" height="33.333333333333336" x="465.5350877192983" y="-16.666666666666668" stroke="none" fill="hsla(210, 9%, 59%, 1)" rx="1.131578947368421" transform="rotate(45, 466.66666666666674, 0)"></rect><rect width="33.333333333333336" height="2.263157894736842" x="516.6666666666667" y="-1.131578947368421" stroke="none" fill="#3b82f6" rx="1.131578947368421" transform="rotate(45, 533.3333333333334, 0)"></rect><rect width="2.263157894736842" height="33.333333333333336" x="532.2017543859649" y="-16.666666666666668" stroke="none" fill="#3b82f6" rx="1.131578947368421" transform="rotate(45, 533.3333333333334, 0)"></rect><rect width="33.333333333333336" height="2.263157894736842" x="583.3333333333334" y="-1.131578947368421" stroke="none" fill="hsla(210, 9%, 59%, 1)" rx="1.131578947368421" transform="rotate(45, 600, 0)"></rect><rect width="2.263157894736842" height="33.333333333333336" x="598.8684210526316" y="-16.666666666666668" stroke="none" fill="hsla(210, 9%, 59%, 1)" rx="1.131578947368421" transform="rotate(45, 600, 0)"></rect><rect width="33.333333333333336" height="2.263157894736842" x="650" y="-1.131578947368421" stroke="none" fill="#3b82f6" rx="1.131578947368421" transform="rotate(45, 666.6666666666666, 0)"></rect><rect width="2.263157894736842" height="33.333333333333336" x="665.5350877192982" y="-16.666666666666668" stroke="none" fill="#3b82f6" rx="1.131578947368421" transform="rotate(45, 666.6666666666666, 0)"></rect><rect width="33.333333333333336" height="2.263157894736842" x="716.6666666666666" y="-1.131578947368421" stroke="none" fill="hsla(210, 9%, 59%, 1)" rx="1.131578947368421" transform="rotate(45, 733.3333333333333, 0)"></rect><rect width="2.263157894736842" height="33.333333333333336" x="732.2017543859648" y="-16.666666666666668" stroke="none" fill="hsla(210, 9%, 59%, 1)" rx="1.131578947368421" transform="rotate(45, 733.3333333333333, 0)"></rect><rect width="33.333333333333336" height="2.263157894736842" x="783.3333333333333" y="-1.131578947368421" stroke="none" fill="#3b82f6" rx="1.131578947368421" transform="rotate(45, 799.9999999999999, 0)"></rect><rect width="2.263157894736842" height="33.333333333333336" x="798.8684210526314" y="-16.666666666666668" stroke="none" fill="#3b82f6" rx="1.131578947368421" transform="rotate(45, 799.9999999999999, 0)"></rect><rect width="33.333333333333336" height="2.263157894736842" x="-16.666666666666668" y="65.53508771929825" stroke="none" fill="hsla(210, 9%, 59%, 1)" rx="1.131578947368421" transform="rotate(45, 0, 66.66666666666667)"></rect><rect width="2.263157894736842" height="33.333333333333336" x="-1.131578947368421" y="50" stroke="none" fill="hsla(210, 9%, 59%, 1)" rx="1.131578947368421" transform="rotate(45, 0, 66.66666666666667)"></rect><rect width="33.333333333333336" height="2.263157894736842" x="50" y="65.53508771929825" stroke="none" fill="#3b82f6" rx="1.131578947368421" transform="rotate(45, 66.66666666666667, 66.66666666666667)"></rect><rect width="2.263157894736842" height="33.333333333333336" x="65.53508771929825" y="50" stroke="none" fill="#3b82f6" rx="1.131578947368421" transform="rotate(45, 66.66666666666667, 66.66666666666667)"></rect><rect width="33.333333333333336" height="2.263157894736842" x="116.66666666666667" y="65.53508771929825" stroke="none" fill="hsla(210, 9%, 59%, 1)" rx="1.131578947368421" transform="rotate(45, 133.33333333333334, 66.66666666666667)"></rect><rect width="2.263157894736842" height="33.333333333333336" x="132.20175438596493" y="50" stroke="none" fill="hsla(210, 9%, 59%, 1)" rx="1.131578947368421" transform="rotate(45, 133.33333333333334, 66.66666666666667)"></rect><rect width="33.333333333333336" height="2.263157894736842" x="183.33333333333334" y="65.53508771929825" stroke="none" fill="#3b82f6" rx="1.131578947368421" transform="rotate(45, 200, 66.66666666666667)"></rect><rect width="2.263157894736842" height="33.333333333333336" x="198.8684210526316" y="50" stroke="none" fill="#3b82f6" rx="1.131578947368421" transform="rotate(45, 200, 66.66666666666667)"></rect><rect width="33.333333333333336" height="2.263157894736842" x="250.00000000000003" y="65.53508771929825" stroke="none" fill="hsla(210, 9%, 59%, 1)" rx="1.131578947368421" transform="rotate(45, 266.6666666666667, 66.66666666666667)"></rect><rect width="2.263157894736842" height="33.333333333333336" x="265.53508771929825" y="50" stroke="none" fill="hsla(210, 9%, 59%, 1)" rx="1.131578947368421" transform="rotate(45, 266.6666666666667, 66.66666666666667)"></rect><rect width="33.333333333333336" height="2.263157894736842" x="316.6666666666667" y="65.53508771929825" stroke="none" fill="#3b82f6" rx="1.131578947368421" transform="rotate(45, 333.33333333333337, 66.66666666666667)"></rect><rect width="2.263157894736842" height="33.333333333333336" x="332.20175438596493" y="50" stroke="none" fill="#3b82f6" rx="1.131578947368421" transform="rotate(45, 333.33333333333337, 66.66666666666667)"></rect><rect width="33.333333333333336" height="2.263157894736842" x="383.33333333333337" y="65.53508771929825" stroke="none" fill="hsla(210, 9%, 59%, 1)" rx="1.131578947368421" transform="rotate(45, 400.00000000000006, 66.66666666666667)"></rect><rect width="2.263157894736842" height="33.333333333333336" x="398.8684210526316" y="50" stroke="none" fill="hsla(210, 9%, 59%, 1)" rx="1.131578947368421" transform="rotate(45, 400.00000000000006, 66.66666666666667)"></rect><rect width="33.333333333333336" height="2.263157894736842" x="450.00000000000006" y="65.53508771929825" stroke="none" fill="#3b82f6" rx="1.131578947368421" transform="rotate(45, 466.66666666666674, 66.66666666666667)"></rect><rect width="2.263157894736842" height="33.333333333333336" x="465.5350877192983" y="50" stroke="none" fill="#3b82f6" rx="1.131578947368421" transform="rotate(45, 466.66666666666674, 66.66666666666667)"></rect><rect width="33.333333333333336" height="2.263157894736842" x="516.6666666666667" y="65.53508771929825" stroke="none" fill="hsla(210, 9%, 59%, 1)" rx="1.131578947368421" transform="rotate(45, 533.3333333333334, 66.66666666666667)"></rect><rect width="2.263157894736842" height="33.333333333333336" x="532.2017543859649" y="50" stroke="none" fill="hsla(210, 9%, 59%, 1)" rx="1.131578947368421" transform="rotate(45, 533.3333333333334, 66.66666666666667)"></rect><rect width="33.333333333333336" height="2.263157894736842" x="583.3333333333334" y="65.53508771929825" stroke="none" fill="#3b82f6" rx="1.131578947368421" transform="rotate(45, 600, 66.66666666666667)"></rect><rect width="2.263157894736842" height="33.333333333333336" x="598.8684210526316" y="50" stroke="none" fill="#3b82f6" rx="1.131578947368421" transform="rotate(45, 600, 66.66666666666667)"></rect><rect width="33.333333333333336" height="2.263157894736842" x="650" y="65.53508771929825" stroke="none" fill="hsla(210, 9%, 59%, 1)" rx="1.131578947368421" transform="rotate(45, 666.6666666666666, 66.66666666666667)"></rect><rect width="2.263157894736842" height="33.333333333333336" x="665.5350877192982" y="50" stroke="none" fill="hsla(210, 9%, 59%, 1)" rx="1.131578947368421" transform="rotate(45, 666.6666666666666, 66.66666666666667)"></rect><rect width="33.333333333333336" height="2.263157894736842" x="716.6666666666666" y="65.53508771929825" stroke="none" fill="#3b82f6" rx="1.131578947368421" transform="rotate(45, 733.3333333333333, 66.66666666666667)"></rect><rect width="2.263157894736842" height="33.333333333333336" x="732.2017543859648" y="50" stroke="none" fill="#3b82f6" rx="1.131578947368421" transform="rotate(45, 733.3333333333333, 66.66666666666667)"></rect><rect width="33.333333333333336" height="2.263157894736842" x="783.3333333333333" y="65.53508771929825" stroke="none" fill="hsla(210, 9%, 59%, 1)" rx="1.131578947368421" transform="rotate(45, 799.9999999999999, 66.66666666666667)"></rect><rect width="2.263157894736842" height="33.333333333333336" x="798.8684210526314" y="50" stroke="none" fill="hsla(210, 9%, 59%, 1)" rx="1.131578947368421" transform="rotate(45, 799.9999999999999, 66.66666666666667)"></rect><rect width="33.333333333333336" height="2.263157894736842" x="-16.666666666666668" y="132.20175438596493" stroke="none" fill="#3b82f6" rx="1.131578947368421" transform="rotate(45, 0, 133.33333333333334)"></rect><rect width="2.263157894736842" height="33.333333333333336" x="-1.131578947368421" y="116.66666666666667" stroke="none" fill="#3b82f6" rx="1.131578947368421" transform="rotate(45, 0, 133.33333333333334)"></rect><rect width="33.333333333333336" height="2.263157894736842" x="50" y="132.20175438596493" stroke="none" fill="hsla(210, 9%, 59%, 1)" rx="1.131578947368421" transform="rotate(45, 66.66666666666667, 133.33333333333334)"></rect><rect width="2.263157894736842" height="33.333333333333336" x="65.53508771929825" y="116.66666666666667" stroke="none" fill="hsla(210, 9%, 59%, 1)" rx="1.131578947368421" transform="rotate(45, 66.66666666666667, 133.33333333333334)"></rect><rect width="33.333333333333336" height="2.263157894736842" x="116.66666666666667" y="132.20175438596493" stroke="none" fill="#3b82f6" rx="1.131578947368421" transform="rotate(45, 133.33333333333334, 133.33333333333334)"></rect><rect width="2.263157894736842" height="33.333333333333336" x="132.20175438596493" y="116.66666666666667" stroke="none" fill="#3b82f6" rx="1.131578947368421" transform="rotate(45, 133.33333333333334, 133.33333333333334)"></rect><rect width="33.333333333333336" height="2.263157894736842" x="183.33333333333334" y="132.20175438596493" stroke="none" fill="hsla(210, 9%, 59%, 1)" rx="1.131578947368421" transform="rotate(45, 200, 133.33333333333334)"></rect><rect width="2.263157894736842" height="33.333333333333336" x="198.8684210526316" y="116.66666666666667" stroke="none" fill="hsla(210, 9%, 59%, 1)" rx="1.131578947368421" transform="rotate(45, 200, 133.33333333333334)"></rect><rect width="33.333333333333336" height="2.263157894736842" x="250.00000000000003" y="132.20175438596493" stroke="none" fill="#3b82f6" rx="1.131578947368421" transform="rotate(45, 266.6666666666667, 133.33333333333334)"></rect><rect width="2.263157894736842" height="33.333333333333336" x="265.53508771929825" y="116.66666666666667" stroke="none" fill="#3b82f6" rx="1.131578947368421" transform="rotate(45, 266.6666666666667, 133.33333333333334)"></rect><rect width="33.333333333333336" height="2.263157894736842" x="316.6666666666667" y="132.20175438596493" stroke="none" fill="hsla(210, 9%, 59%, 1)" rx="1.131578947368421" transform="rotate(45, 333.33333333333337, 133.33333333333334)"></rect><rect width="2.263157894736842" height="33.333333333333336" x="332.20175438596493" y="116.66666666666667" stroke="none" fill="hsla(210, 9%, 59%, 1)" rx="1.131578947368421" transform="rotate(45, 333.33333333333337, 133.33333333333334)"></rect><rect width="33.333333333333336" height="2.263157894736842" x="383.33333333333337" y="132.20175438596493" stroke="none" fill="#3b82f6" rx="1.131578947368421" transform="rotate(45, 400.00000000000006, 133.33333333333334)"></rect><rect width="2.263157894736842" height="33.333333333333336" x="398.8684210526316" y="116.66666666666667" stroke="none" fill="#3b82f6" rx="1.131578947368421" transform="rotate(45, 400.00000000000006, 133.33333333333334)"></rect><rect width="33.333333333333336" height="2.263157894736842" x="450.00000000000006" y="132.20175438596493" stroke="none" fill="hsla(210, 9%, 59%, 1)" rx="1.131578947368421" transform="rotate(45, 466.66666666666674, 133.33333333333334)"></rect><rect width="2.263157894736842" height="33.333333333333336" x="465.5350877192983" y="116.66666666666667" stroke="none" fill="hsla(210, 9%, 59%, 1)" rx="1.131578947368421" transform="rotate(45, 466.66666666666674, 133.33333333333334)"></rect><rect width="33.333333333333336" height="2.263157894736842" x="516.6666666666667" y="132.20175438596493" stroke="none" fill="#3b82f6" rx="1.131578947368421" transform="rotate(45, 533.3333333333334, 133.33333333333334)"></rect><rect width="2.263157894736842" height="33.333333333333336" x="532.2017543859649" y="116.66666666666667" stroke="none" fill="#3b82f6" rx="1.131578947368421" transform="rotate(45, 533.3333333333334, 133.33333333333334)"></rect><rect width="33.333333333333336" height="2.263157894736842" x="583.3333333333334" y="132.20175438596493" stroke="none" fill="hsla(210, 9%, 59%, 1)" rx="1.131578947368421" transform="rotate(45, 600, 133.33333333333334)"></rect><rect width="2.263157894736842" height="33.333333333333336" x="598.8684210526316" y="116.66666666666667" stroke="none" fill="hsla(210, 9%, 59%, 1)" rx="1.131578947368421" transform="rotate(45, 600, 133.33333333333334)"></rect><rect width="33.333333333333336" height="2.263157894736842" x="650" y="132.20175438596493" stroke="none" fill="#3b82f6" rx="1.131578947368421" transform="rotate(45, 666.6666666666666, 133.33333333333334)"></rect><rect width="2.263157894736842" height="33.333333333333336" x="665.5350877192982" y="116.66666666666667" stroke="none" fill="#3b82f6" rx="1.131578947368421" transform="rotate(45, 666.6666666666666, 133.33333333333334)"></rect><rect width="33.333333333333336" height="2.263157894736842" x="716.6666666666666" y="132.20175438596493" stroke="none" fill="hsla(210, 9%, 59%, 1)" rx="1.131578947368421" transform="rotate(45, 733.3333333333333, 133.33333333333334)"></rect><rect width="2.263157894736842" height="33.333333333333336" x="732.2017543859648" y="116.66666666666667" stroke="none" fill="hsla(210, 9%, 59%, 1)" rx="1.131578947368421" transform="rotate(45, 733.3333333333333, 133.33333333333334)"></rect><rect width="33.333333333333336" height="2.263157894736842" x="783.3333333333333" y="132.20175438596493" stroke="none" fill="#3b82f6" rx="1.131578947368421" transform="rotate(45, 799.9999999999999, 133.33333333333334)"></rect><rect width="2.263157894736842" height="33.333333333333336" x="798.8684210526314" y="116.66666666666667" stroke="none" fill="#3b82f6" rx="1.131578947368421" transform="rotate(45, 799.9999999999999, 133.33333333333334)"></rect><rect width="33.333333333333336" height="2.263157894736842" x="-16.666666666666668" y="198.8684210526316" stroke="none" fill="hsla(210, 9%, 59%, 1)" rx="1.131578947368421" transform="rotate(45, 0, 200)"></rect><rect width="2.263157894736842" height="33.333333333333336" x="-1.131578947368421" y="183.33333333333334" stroke="none" fill="hsla(210, 9%, 59%, 1)" rx="1.131578947368421" transform="rotate(45, 0, 200)"></rect><rect width="33.333333333333336" height="2.263157894736842" x="50" y="198.8684210526316" stroke="none" fill="#3b82f6" rx="1.131578947368421" transform="rotate(45, 66.66666666666667, 200)"></rect><rect width="2.263157894736842" height="33.333333333333336" x="65.53508771929825" y="183.33333333333334" stroke="none" fill="#3b82f6" rx="1.131578947368421" transform="rotate(45, 66.66666666666667, 200)"></rect><rect width="33.333333333333336" height="2.263157894736842" x="116.66666666666667" y="198.8684210526316" stroke="none" fill="hsla(210, 9%, 59%, 1)" rx="1.131578947368421" transform="rotate(45, 133.33333333333334, 200)"></rect><rect width="2.263157894736842" height="33.333333333333336" x="132.20175438596493" y="183.33333333333334" stroke="none" fill="hsla(210, 9%, 59%, 1)" rx="1.131578947368421" transform="rotate(45, 133.33333333333334, 200)"></rect><rect width="33.333333333333336" height="2.263157894736842" x="183.33333333333334" y="198.8684210526316" stroke="none" fill="#3b82f6" rx="1.131578947368421" transform="rotate(45, 200, 200)"></rect><rect width="2.263157894736842" height="33.333333333333336" x="198.8684210526316" y="183.33333333333334" stroke="none" fill="#3b82f6" rx="1.131578947368421" transform="rotate(45, 200, 200)"></rect><rect width="33.333333333333336" height="2.263157894736842" x="250.00000000000003" y="198.8684210526316" stroke="none" fill="hsla(210, 9%, 59%, 1)" rx="1.131578947368421" transform="rotate(45, 266.6666666666667, 200)"></rect><rect width="2.263157894736842" height="33.333333333333336" x="265.53508771929825" y="183.33333333333334" stroke="none" fill="hsla(210, 9%, 59%, 1)" rx="1.131578947368421" transform="rotate(45, 266.6666666666667, 200)"></rect><rect width="33.333333333333336" height="2.263157894736842" x="316.6666666666667" y="198.8684210526316" stroke="none" fill="#3b82f6" rx="1.131578947368421" transform="rotate(45, 333.33333333333337, 200)"></rect><rect width="2.263157894736842" height="33.333333333333336" x="332.20175438596493" y="183.33333333333334" stroke="none" fill="#3b82f6" rx="1.131578947368421" transform="rotate(45, 333.33333333333337, 200)"></rect><rect width="33.333333333333336" height="2.263157894736842" x="383.33333333333337" y="198.8684210526316" stroke="none" fill="hsla(210, 9%, 59%, 1)" rx="1.131578947368421" transform="rotate(45, 400.00000000000006, 200)"></rect><rect width="2.263157894736842" height="33.333333333333336" x="398.8684210526316" y="183.33333333333334" stroke="none" fill="hsla(210, 9%, 59%, 1)" rx="1.131578947368421" transform="rotate(45, 400.00000000000006, 200)"></rect><rect width="33.333333333333336" height="2.263157894736842" x="450.00000000000006" y="198.8684210526316" stroke="none" fill="#3b82f6" rx="1.131578947368421" transform="rotate(45, 466.66666666666674, 200)"></rect><rect width="2.263157894736842" height="33.333333333333336" x="465.5350877192983" y="183.33333333333334" stroke="none" fill="#3b82f6" rx="1.131578947368421" transform="rotate(45, 466.66666666666674, 200)"></rect><rect width="33.333333333333336" height="2.263157894736842" x="516.6666666666667" y="198.8684210526316" stroke="none" fill="hsla(210, 9%, 59%, 1)" rx="1.131578947368421" transform="rotate(45, 533.3333333333334, 200)"></rect><rect width="2.263157894736842" height="33.333333333333336" x="532.2017543859649" y="183.33333333333334" stroke="none" fill="hsla(210, 9%, 59%, 1)" rx="1.131578947368421" transform="rotate(45, 533.3333333333334, 200)"></rect><rect width="33.333333333333336" height="2.263157894736842" x="583.3333333333334" y="198.8684210526316" stroke="none" fill="#3b82f6" rx="1.131578947368421" transform="rotate(45, 600, 200)"></rect><rect width="2.263157894736842" height="33.333333333333336" x="598.8684210526316" y="183.33333333333334" stroke="none" fill="#3b82f6" rx="1.131578947368421" transform="rotate(45, 600, 200)"></rect><rect width="33.333333333333336" height="2.263157894736842" x="650" y="198.8684210526316" stroke="none" fill="hsla(210, 9%, 59%, 1)" rx="1.131578947368421" transform="rotate(45, 666.6666666666666, 200)"></rect><rect width="2.263157894736842" height="33.333333333333336" x="665.5350877192982" y="183.33333333333334" stroke="none" fill="hsla(210, 9%, 59%, 1)" rx="1.131578947368421" transform="rotate(45, 666.6666666666666, 200)"></rect><rect width="33.333333333333336" height="2.263157894736842" x="716.6666666666666" y="198.8684210526316" stroke="none" fill="#3b82f6" rx="1.131578947368421" transform="rotate(45, 733.3333333333333, 200)"></rect><rect width="2.263157894736842" height="33.333333333333336" x="732.2017543859648" y="183.33333333333334" stroke="none" fill="#3b82f6" rx="1.131578947368421" transform="rotate(45, 733.3333333333333, 200)"></rect><rect width="33.333333333333336" height="2.263157894736842" x="783.3333333333333" y="198.8684210526316" stroke="none" fill="hsla(210, 9%, 59%, 1)" rx="1.131578947368421" transform="rotate(45, 799.9999999999999, 200)"></rect><rect width="2.263157894736842" height="33.333333333333336" x="798.8684210526314" y="183.33333333333334" stroke="none" fill="hsla(210, 9%, 59%, 1)" rx="1.131578947368421" transform="rotate(45, 799.9999999999999, 200)"></rect><rect width="33.333333333333336" height="2.263157894736842" x="-16.666666666666668" y="265.53508771929825" stroke="none" fill="#3b82f6" rx="1.131578947368421" transform="rotate(45, 0, 266.6666666666667)"></rect><rect width="2.263157894736842" height="33.333333333333336" x="-1.131578947368421" y="250.00000000000003" stroke="none" fill="#3b82f6" rx="1.131578947368421" transform="rotate(45, 0, 266.6666666666667)"></rect><rect width="33.333333333333336" height="2.263157894736842" x="50" y="265.53508771929825" stroke="none" fill="hsla(210, 9%, 59%, 1)" rx="1.131578947368421" transform="rotate(45, 66.66666666666667, 266.6666666666667)"></rect><rect width="2.263157894736842" height="33.333333333333336" x="65.53508771929825" y="250.00000000000003" stroke="none" fill="hsla(210, 9%, 59%, 1)" rx="1.131578947368421" transform="rotate(45, 66.66666666666667, 266.6666666666667)"></rect><rect width="33.333333333333336" height="2.263157894736842" x="116.66666666666667" y="265.53508771929825" stroke="none" fill="#3b82f6" rx="1.131578947368421" transform="rotate(45, 133.33333333333334, 266.6666666666667)"></rect><rect width="2.263157894736842" height="33.333333333333336" x="132.20175438596493" y="250.00000000000003" stroke="none" fill="#3b82f6" rx="1.131578947368421" transform="rotate(45, 133.33333333333334, 266.6666666666667)"></rect><rect width="33.333333333333336" height="2.263157894736842" x="183.33333333333334" y="265.53508771929825" stroke="none" fill="hsla(210, 9%, 59%, 1)" rx="1.131578947368421" transform="rotate(45, 200, 266.6666666666667)"></rect><rect width="2.263157894736842" height="33.333333333333336" x="198.8684210526316" y="250.00000000000003" stroke="none" fill="hsla(210, 9%, 59%, 1)" rx="1.131578947368421" transform="rotate(45, 200, 266.6666666666667)"></rect><rect width="33.333333333333336" height="2.263157894736842" x="250.00000000000003" y="265.53508771929825" stroke="none" fill="#3b82f6" rx="1.131578947368421" transform="rotate(45, 266.6666666666667, 266.6666666666667)"></rect><rect width="2.263157894736842" height="33.333333333333336" x="265.53508771929825" y="250.00000000000003" stroke="none" fill="#3b82f6" rx="1.131578947368421" transform="rotate(45, 266.6666666666667, 266.6666666666667)"></rect><rect width="33.333333333333336" height="2.263157894736842" x="316.6666666666667" y="265.53508771929825" stroke="none" fill="hsla(210, 9%, 59%, 1)" rx="1.131578947368421" transform="rotate(45, 333.33333333333337, 266.6666666666667)"></rect><rect width="2.263157894736842" height="33.333333333333336" x="332.20175438596493" y="250.00000000000003" stroke="none" fill="hsla(210, 9%, 59%, 1)" rx="1.131578947368421" transform="rotate(45, 333.33333333333337, 266.6666666666667)"></rect><rect width="33.333333333333336" height="2.263157894736842" x="383.33333333333337" y="265.53508771929825" stroke="none" fill="#3b82f6" rx="1.131578947368421" transform="rotate(45, 400.00000000000006, 266.6666666666667)"></rect><rect width="2.263157894736842" height="33.333333333333336" x="398.8684210526316" y="250.00000000000003" stroke="none" fill="#3b82f6" rx="1.131578947368421" transform="rotate(45, 400.00000000000006, 266.6666666666667)"></rect><rect width="33.333333333333336" height="2.263157894736842" x="450.00000000000006" y="265.53508771929825" stroke="none" fill="hsla(210, 9%, 59%, 1)" rx="1.131578947368421" transform="rotate(45, 466.66666666666674, 266.6666666666667)"></rect><rect width="2.263157894736842" height="33.333333333333336" x="465.5350877192983" y="250.00000000000003" stroke="none" fill="hsla(210, 9%, 59%, 1)" rx="1.131578947368421" transform="rotate(45, 466.66666666666674, 266.6666666666667)"></rect><rect width="33.333333333333336" height="2.263157894736842" x="516.6666666666667" y="265.53508771929825" stroke="none" fill="#3b82f6" rx="1.131578947368421" transform="rotate(45, 533.3333333333334, 266.6666666666667)"></rect><rect width="2.263157894736842" height="33.333333333333336" x="532.2017543859649" y="250.00000000000003" stroke="none" fill="#3b82f6" rx="1.131578947368421" transform="rotate(45, 533.3333333333334, 266.6666666666667)"></rect><rect width="33.333333333333336" height="2.263157894736842" x="583.3333333333334" y="265.53508771929825" stroke="none" fill="hsla(210, 9%, 59%, 1)" rx="1.131578947368421" transform="rotate(45, 600, 266.6666666666667)"></rect><rect width="2.263157894736842" height="33.333333333333336" x="598.8684210526316" y="250.00000000000003" stroke="none" fill="hsla(210, 9%, 59%, 1)" rx="1.131578947368421" transform="rotate(45, 600, 266.6666666666667)"></rect><rect width="33.333333333333336" height="2.263157894736842" x="650" y="265.53508771929825" stroke="none" fill="#3b82f6" rx="1.131578947368421" transform="rotate(45, 666.6666666666666, 266.6666666666667)"></rect><rect width="2.263157894736842" height="33.333333333333336" x="665.5350877192982" y="250.00000000000003" stroke="none" fill="#3b82f6" rx="1.131578947368421" transform="rotate(45, 666.6666666666666, 266.6666666666667)"></rect><rect width="33.333333333333336" height="2.263157894736842" x="716.6666666666666" y="265.53508771929825" stroke="none" fill="hsla(210, 9%, 59%, 1)" rx="1.131578947368421" transform="rotate(45, 733.3333333333333, 266.6666666666667)"></rect><rect width="2.263157894736842" height="33.333333333333336" x="732.2017543859648" y="250.00000000000003" stroke="none" fill="hsla(210, 9%, 59%, 1)" rx="1.131578947368421" transform="rotate(45, 733.3333333333333, 266.6666666666667)"></rect><rect width="33.333333333333336" height="2.263157894736842" x="783.3333333333333" y="265.53508771929825" stroke="none" fill="#3b82f6" rx="1.131578947368421" transform="rotate(45, 799.9999999999999, 266.6666666666667)"></rect><rect width="2.263157894736842" height="33.333333333333336" x="798.8684210526314" y="250.00000000000003" stroke="none" fill="#3b82f6" rx="1.131578947368421" transform="rotate(45, 799.9999999999999, 266.6666666666667)"></rect><rect width="33.333333333333336" height="2.263157894736842" x="-16.666666666666668" y="332.20175438596493" stroke="none" fill="hsla(210, 9%, 59%, 1)" rx="1.131578947368421" transform="rotate(45, 0, 333.33333333333337)"></rect><rect width="2.263157894736842" height="33.333333333333336" x="-1.131578947368421" y="316.6666666666667" stroke="none" fill="hsla(210, 9%, 59%, 1)" rx="1.131578947368421" transform="rotate(45, 0, 333.33333333333337)"></rect><rect width="33.333333333333336" height="2.263157894736842" x="50" y="332.20175438596493" stroke="none" fill="#3b82f6" rx="1.131578947368421" transform="rotate(45, 66.66666666666667, 333.33333333333337)"></rect><rect width="2.263157894736842" height="33.333333333333336" x="65.53508771929825" y="316.6666666666667" stroke="none" fill="#3b82f6" rx="1.131578947368421" transform="rotate(45, 66.66666666666667, 333.33333333333337)"></rect><rect width="33.333333333333336" height="2.263157894736842" x="116.66666666666667" y="332.20175438596493" stroke="none" fill="hsla(210, 9%, 59%, 1)" rx="1.131578947368421" transform="rotate(45, 133.33333333333334, 333.33333333333337)"></rect><rect width="2.263157894736842" height="33.333333333333336" x="132.20175438596493" y="316.6666666666667" stroke="none" fill="hsla(210, 9%, 59%, 1)" rx="1.131578947368421" transform="rotate(45, 133.33333333333334, 333.33333333333337)"></rect><rect width="33.333333333333336" height="2.263157894736842" x="183.33333333333334" y="332.20175438596493" stroke="none" fill="#3b82f6" rx="1.131578947368421" transform="rotate(45, 200, 333.33333333333337)"></rect><rect width="2.263157894736842" height="33.333333333333336" x="198.8684210526316" y="316.6666666666667" stroke="none" fill="#3b82f6" rx="1.131578947368421" transform="rotate(45, 200, 333.33333333333337)"></rect><rect width="33.333333333333336" height="2.263157894736842" x="250.00000000000003" y="332.20175438596493" stroke="none" fill="hsla(210, 9%, 59%, 1)" rx="1.131578947368421" transform="rotate(45, 266.6666666666667, 333.33333333333337)"></rect><rect width="2.263157894736842" height="33.333333333333336" x="265.53508771929825" y="316.6666666666667" stroke="none" fill="hsla(210, 9%, 59%, 1)" rx="1.131578947368421" transform="rotate(45, 266.6666666666667, 333.33333333333337)"></rect><rect width="33.333333333333336" height="2.263157894736842" x="316.6666666666667" y="332.20175438596493" stroke="none" fill="#3b82f6" rx="1.131578947368421" transform="rotate(45, 333.33333333333337, 333.33333333333337)"></rect><rect width="2.263157894736842" height="33.333333333333336" x="332.20175438596493" y="316.6666666666667" stroke="none" fill="#3b82f6" rx="1.131578947368421" transform="rotate(45, 333.33333333333337, 333.33333333333337)"></rect><rect width="33.333333333333336" height="2.263157894736842" x="383.33333333333337" y="332.20175438596493" stroke="none" fill="hsla(210, 9%, 59%, 1)" rx="1.131578947368421" transform="rotate(45, 400.00000000000006, 333.33333333333337)"></rect><rect width="2.263157894736842" height="33.333333333333336" x="398.8684210526316" y="316.6666666666667" stroke="none" fill="hsla(210, 9%, 59%, 1)" rx="1.131578947368421" transform="rotate(45, 400.00000000000006, 333.33333333333337)"></rect><rect width="33.333333333333336" height="2.263157894736842" x="450.00000000000006" y="332.20175438596493" stroke="none" fill="#3b82f6" rx="1.131578947368421" transform="rotate(45, 466.66666666666674, 333.33333333333337)"></rect><rect width="2.263157894736842" height="33.333333333333336" x="465.5350877192983" y="316.6666666666667" stroke="none" fill="#3b82f6" rx="1.131578947368421" transform="rotate(45, 466.66666666666674, 333.33333333333337)"></rect><rect width="33.333333333333336" height="2.263157894736842" x="516.6666666666667" y="332.20175438596493" stroke="none" fill="hsla(210, 9%, 59%, 1)" rx="1.131578947368421" transform="rotate(45, 533.3333333333334, 333.33333333333337)"></rect><rect width="2.263157894736842" height="33.333333333333336" x="532.2017543859649" y="316.6666666666667" stroke="none" fill="hsla(210, 9%, 59%, 1)" rx="1.131578947368421" transform="rotate(45, 533.3333333333334, 333.33333333333337)"></rect><rect width="33.333333333333336" height="2.263157894736842" x="583.3333333333334" y="332.20175438596493" stroke="none" fill="#3b82f6" rx="1.131578947368421" transform="rotate(45, 600, 333.33333333333337)"></rect><rect width="2.263157894736842" height="33.333333333333336" x="598.8684210526316" y="316.6666666666667" stroke="none" fill="#3b82f6" rx="1.131578947368421" transform="rotate(45, 600, 333.33333333333337)"></rect><rect width="33.333333333333336" height="2.263157894736842" x="650" y="332.20175438596493" stroke="none" fill="hsla(210, 9%, 59%, 1)" rx="1.131578947368421" transform="rotate(45, 666.6666666666666, 333.33333333333337)"></rect><rect width="2.263157894736842" height="33.333333333333336" x="665.5350877192982" y="316.6666666666667" stroke="none" fill="hsla(210, 9%, 59%, 1)" rx="1.131578947368421" transform="rotate(45, 666.6666666666666, 333.33333333333337)"></rect><rect width="33.333333333333336" height="2.263157894736842" x="716.6666666666666" y="332.20175438596493" stroke="none" fill="#3b82f6" rx="1.131578947368421" transform="rotate(45, 733.3333333333333, 333.33333333333337)"></rect><rect width="2.263157894736842" height="33.333333333333336" x="732.2017543859648" y="316.6666666666667" stroke="none" fill="#3b82f6" rx="1.131578947368421" transform="rotate(45, 733.3333333333333, 333.33333333333337)"></rect><rect width="33.333333333333336" height="2.263157894736842" x="783.3333333333333" y="332.20175438596493" stroke="none" fill="hsla(210, 9%, 59%, 1)" rx="1.131578947368421" transform="rotate(45, 799.9999999999999, 333.33333333333337)"></rect><rect width="2.263157894736842" height="33.333333333333336" x="798.8684210526314" y="316.6666666666667" stroke="none" fill="hsla(210, 9%, 59%, 1)" rx="1.131578947368421" transform="rotate(45, 799.9999999999999, 333.33333333333337)"></rect><rect width="33.333333333333336" height="2.263157894736842" x="-16.666666666666668" y="398.8684210526316" stroke="none" fill="#3b82f6" rx="1.131578947368421" transform="rotate(45, 0, 400.00000000000006)"></rect><rect width="2.263157894736842" height="33.333333333333336" x="-1.131578947368421" y="383.33333333333337" stroke="none" fill="#3b82f6" rx="1.131578947368421" transform="rotate(45, 0, 400.00000000000006)"></rect><rect width="33.333333333333336" height="2.263157894736842" x="50" y="398.8684210526316" stroke="none" fill="hsla(210, 9%, 59%, 1)" rx="1.131578947368421" transform="rotate(45, 66.66666666666667, 400.00000000000006)"></rect><rect width="2.263157894736842" height="33.333333333333336" x="65.53508771929825" y="383.33333333333337" stroke="none" fill="hsla(210, 9%, 59%, 1)" rx="1.131578947368421" transform="rotate(45, 66.66666666666667, 400.00000000000006)"></rect><rect width="33.333333333333336" height="2.263157894736842" x="116.66666666666667" y="398.8684210526316" stroke="none" fill="#3b82f6" rx="1.131578947368421" transform="rotate(45, 133.33333333333334, 400.00000000000006)"></rect><rect width="2.263157894736842" height="33.333333333333336" x="132.20175438596493" y="383.33333333333337" stroke="none" fill="#3b82f6" rx="1.131578947368421" transform="rotate(45, 133.33333333333334, 400.00000000000006)"></rect><rect width="33.333333333333336" height="2.263157894736842" x="183.33333333333334" y="398.8684210526316" stroke="none" fill="hsla(210, 9%, 59%, 1)" rx="1.131578947368421" transform="rotate(45, 200, 400.00000000000006)"></rect><rect width="2.263157894736842" height="33.333333333333336" x="198.8684210526316" y="383.33333333333337" stroke="none" fill="hsla(210, 9%, 59%, 1)" rx="1.131578947368421" transform="rotate(45, 200, 400.00000000000006)"></rect><rect width="33.333333333333336" height="2.263157894736842" x="250.00000000000003" y="398.8684210526316" stroke="none" fill="#3b82f6" rx="1.131578947368421" transform="rotate(45, 266.6666666666667, 400.00000000000006)"></rect><rect width="2.263157894736842" height="33.333333333333336" x="265.53508771929825" y="383.33333333333337" stroke="none" fill="#3b82f6" rx="1.131578947368421" transform="rotate(45, 266.6666666666667, 400.00000000000006)"></rect><rect width="33.333333333333336" height="2.263157894736842" x="316.6666666666667" y="398.8684210526316" stroke="none" fill="hsla(210, 9%, 59%, 1)" rx="1.131578947368421" transform="rotate(45, 333.33333333333337, 400.00000000000006)"></rect><rect width="2.263157894736842" height="33.333333333333336" x="332.20175438596493" y="383.33333333333337" stroke="none" fill="hsla(210, 9%, 59%, 1)" rx="1.131578947368421" transform="rotate(45, 333.33333333333337, 400.00000000000006)"></rect><rect width="33.333333333333336" height="2.263157894736842" x="383.33333333333337" y="398.8684210526316" stroke="none" fill="#3b82f6" rx="1.131578947368421" transform="rotate(45, 400.00000000000006, 400.00000000000006)"></rect><rect width="2.263157894736842" height="33.333333333333336" x="398.8684210526316" y="383.33333333333337" stroke="none" fill="#3b82f6" rx="1.131578947368421" transform="rotate(45, 400.00000000000006, 400.00000000000006)"></rect><rect width="33.333333333333336" height="2.263157894736842" x="450.00000000000006" y="398.8684210526316" stroke="none" fill="hsla(210, 9%, 59%, 1)" rx="1.131578947368421" transform="rotate(45, 466.66666666666674, 400.00000000000006)"></rect><rect width="2.263157894736842" height="33.333333333333336" x="465.5350877192983" y="383.33333333333337" stroke="none" fill="hsla(210, 9%, 59%, 1)" rx="1.131578947368421" transform="rotate(45, 466.66666666666674, 400.00000000000006)"></rect><rect width="33.333333333333336" height="2.263157894736842" x="516.6666666666667" y="398.8684210526316" stroke="none" fill="#3b82f6" rx="1.131578947368421" transform="rotate(45, 533.3333333333334, 400.00000000000006)"></rect><rect width="2.263157894736842" height="33.333333333333336" x="532.2017543859649" y="383.33333333333337" stroke="none" fill="#3b82f6" rx="1.131578947368421" transform="rotate(45, 533.3333333333334, 400.00000000000006)"></rect><rect width="33.333333333333336" height="2.263157894736842" x="583.3333333333334" y="398.8684210526316" stroke="none" fill="hsla(210, 9%, 59%, 1)" rx="1.131578947368421" transform="rotate(45, 600, 400.00000000000006)"></rect><rect width="2.263157894736842" height="33.333333333333336" x="598.8684210526316" y="383.33333333333337" stroke="none" fill="hsla(210, 9%, 59%, 1)" rx="1.131578947368421" transform="rotate(45, 600, 400.00000000000006)"></rect><rect width="33.333333333333336" height="2.263157894736842" x="650" y="398.8684210526316" stroke="none" fill="#3b82f6" rx="1.131578947368421" transform="rotate(45, 666.6666666666666, 400.00000000000006)"></rect><rect width="2.263157894736842" height="33.333333333333336" x="665.5350877192982" y="383.33333333333337" stroke="none" fill="#3b82f6" rx="1.131578947368421" transform="rotate(45, 666.6666666666666, 400.00000000000006)"></rect><rect width="33.333333333333336" height="2.263157894736842" x="716.6666666666666" y="398.8684210526316" stroke="none" fill="hsla(210, 9%, 59%, 1)" rx="1.131578947368421" transform="rotate(45, 733.3333333333333, 400.00000000000006)"></rect><rect width="2.263157894736842" height="33.333333333333336" x="732.2017543859648" y="383.33333333333337" stroke="none" fill="hsla(210, 9%, 59%, 1)" rx="1.131578947368421" transform="rotate(45, 733.3333333333333, 400.00000000000006)"></rect><rect width="33.333333333333336" height="2.263157894736842" x="783.3333333333333" y="398.8684210526316" stroke="none" fill="#3b82f6" rx="1.131578947368421" transform="rotate(45, 799.9999999999999, 400.00000000000006)"></rect><rect width="2.263157894736842" height="33.333333333333336" x="798.8684210526314" y="383.33333333333337" stroke="none" fill="#3b82f6" rx="1.131578947368421" transform="rotate(45, 799.9999999999999, 400.00000000000006)"></rect><rect width="33.333333333333336" height="2.263157894736842" x="-16.666666666666668" y="465.5350877192983" stroke="none" fill="hsla(210, 9%, 59%, 1)" rx="1.131578947368421" transform="rotate(45, 0, 466.66666666666674)"></rect><rect width="2.263157894736842" height="33.333333333333336" x="-1.131578947368421" y="450.00000000000006" stroke="none" fill="hsla(210, 9%, 59%, 1)" rx="1.131578947368421" transform="rotate(45, 0, 466.66666666666674)"></rect><rect width="33.333333333333336" height="2.263157894736842" x="50" y="465.5350877192983" stroke="none" fill="#3b82f6" rx="1.131578947368421" transform="rotate(45, 66.66666666666667, 466.66666666666674)"></rect><rect width="2.263157894736842" height="33.333333333333336" x="65.53508771929825" y="450.00000000000006" stroke="none" fill="#3b82f6" rx="1.131578947368421" transform="rotate(45, 66.66666666666667, 466.66666666666674)"></rect><rect width="33.333333333333336" height="2.263157894736842" x="116.66666666666667" y="465.5350877192983" stroke="none" fill="hsla(210, 9%, 59%, 1)" rx="1.131578947368421" transform="rotate(45, 133.33333333333334, 466.66666666666674)"></rect><rect width="2.263157894736842" height="33.333333333333336" x="132.20175438596493" y="450.00000000000006" stroke="none" fill="hsla(210, 9%, 59%, 1)" rx="1.131578947368421" transform="rotate(45, 133.33333333333334, 466.66666666666674)"></rect><rect width="33.333333333333336" height="2.263157894736842" x="183.33333333333334" y="465.5350877192983" stroke="none" fill="#3b82f6" rx="1.131578947368421" transform="rotate(45, 200, 466.66666666666674)"></rect><rect width="2.263157894736842" height="33.333333333333336" x="198.8684210526316" y="450.00000000000006" stroke="none" fill="#3b82f6" rx="1.131578947368421" transform="rotate(45, 200, 466.66666666666674)"></rect><rect width="33.333333333333336" height="2.263157894736842" x="250.00000000000003" y="465.5350877192983" stroke="none" fill="hsla(210, 9%, 59%, 1)" rx="1.131578947368421" transform="rotate(45, 266.6666666666667, 466.66666666666674)"></rect><rect width="2.263157894736842" height="33.333333333333336" x="265.53508771929825" y="450.00000000000006" stroke="none" fill="hsla(210, 9%, 59%, 1)" rx="1.131578947368421" transform="rotate(45, 266.6666666666667, 466.66666666666674)"></rect><rect width="33.333333333333336" height="2.263157894736842" x="316.6666666666667" y="465.5350877192983" stroke="none" fill="#3b82f6" rx="1.131578947368421" transform="rotate(45, 333.33333333333337, 466.66666666666674)"></rect><rect width="2.263157894736842" height="33.333333333333336" x="332.20175438596493" y="450.00000000000006" stroke="none" fill="#3b82f6" rx="1.131578947368421" transform="rotate(45, 333.33333333333337, 466.66666666666674)"></rect><rect width="33.333333333333336" height="2.263157894736842" x="383.33333333333337" y="465.5350877192983" stroke="none" fill="hsla(210, 9%, 59%, 1)" rx="1.131578947368421" transform="rotate(45, 400.00000000000006, 466.66666666666674)"></rect><rect width="2.263157894736842" height="33.333333333333336" x="398.8684210526316" y="450.00000000000006" stroke="none" fill="hsla(210, 9%, 59%, 1)" rx="1.131578947368421" transform="rotate(45, 400.00000000000006, 466.66666666666674)"></rect><rect width="33.333333333333336" height="2.263157894736842" x="450.00000000000006" y="465.5350877192983" stroke="none" fill="#3b82f6" rx="1.131578947368421" transform="rotate(45, 466.66666666666674, 466.66666666666674)"></rect><rect width="2.263157894736842" height="33.333333333333336" x="465.5350877192983" y="450.00000000000006" stroke="none" fill="#3b82f6" rx="1.131578947368421" transform="rotate(45, 466.66666666666674, 466.66666666666674)"></rect><rect width="33.333333333333336" height="2.263157894736842" x="516.6666666666667" y="465.5350877192983" stroke="none" fill="hsla(210, 9%, 59%, 1)" rx="1.131578947368421" transform="rotate(45, 533.3333333333334, 466.66666666666674)"></rect><rect width="2.263157894736842" height="33.333333333333336" x="532.2017543859649" y="450.00000000000006" stroke="none" fill="hsla(210, 9%, 59%, 1)" rx="1.131578947368421" transform="rotate(45, 533.3333333333334, 466.66666666666674)"></rect><rect width="33.333333333333336" height="2.263157894736842" x="583.3333333333334" y="465.5350877192983" stroke="none" fill="#3b82f6" rx="1.131578947368421" transform="rotate(45, 600, 466.66666666666674)"></rect><rect width="2.263157894736842" height="33.333333333333336" x="598.8684210526316" y="450.00000000000006" stroke="none" fill="#3b82f6" rx="1.131578947368421" transform="rotate(45, 600, 466.66666666666674)"></rect><rect width="33.333333333333336" height="2.263157894736842" x="650" y="465.5350877192983" stroke="none" fill="hsla(210, 9%, 59%, 1)" rx="1.131578947368421" transform="rotate(45, 666.6666666666666, 466.66666666666674)"></rect><rect width="2.263157894736842" height="33.333333333333336" x="665.5350877192982" y="450.00000000000006" stroke="none" fill="hsla(210, 9%, 59%, 1)" rx="1.131578947368421" transform="rotate(45, 666.6666666666666, 466.66666666666674)"></rect><rect width="33.333333333333336" height="2.263157894736842" x="716.6666666666666" y="465.5350877192983" stroke="none" fill="#3b82f6" rx="1.131578947368421" transform="rotate(45, 733.3333333333333, 466.66666666666674)"></rect><rect width="2.263157894736842" height="33.333333333333336" x="732.2017543859648" y="450.00000000000006" stroke="none" fill="#3b82f6" rx="1.131578947368421" transform="rotate(45, 733.3333333333333, 466.66666666666674)"></rect><rect width="33.333333333333336" height="2.263157894736842" x="783.3333333333333" y="465.5350877192983" stroke="none" fill="hsla(210, 9%, 59%, 1)" rx="1.131578947368421" transform="rotate(45, 799.9999999999999, 466.66666666666674)"></rect><rect width="2.263157894736842" height="33.333333333333336" x="798.8684210526314" y="450.00000000000006" stroke="none" fill="hsla(210, 9%, 59%, 1)" rx="1.131578947368421" transform="rotate(45, 799.9999999999999, 466.66666666666674)"></rect><rect width="33.333333333333336" height="2.263157894736842" x="-16.666666666666668" y="532.2017543859649" stroke="none" fill="#3b82f6" rx="1.131578947368421" transform="rotate(45, 0, 533.3333333333334)"></rect><rect width="2.263157894736842" height="33.333333333333336" x="-1.131578947368421" y="516.6666666666667" stroke="none" fill="#3b82f6" rx="1.131578947368421" transform="rotate(45, 0, 533.3333333333334)"></rect><rect width="33.333333333333336" height="2.263157894736842" x="50" y="532.2017543859649" stroke="none" fill="hsla(210, 9%, 59%, 1)" rx="1.131578947368421" transform="rotate(45, 66.66666666666667, 533.3333333333334)"></rect><rect width="2.263157894736842" height="33.333333333333336" x="65.53508771929825" y="516.6666666666667" stroke="none" fill="hsla(210, 9%, 59%, 1)" rx="1.131578947368421" transform="rotate(45, 66.66666666666667, 533.3333333333334)"></rect><rect width="33.333333333333336" height="2.263157894736842" x="116.66666666666667" y="532.2017543859649" stroke="none" fill="#3b82f6" rx="1.131578947368421" transform="rotate(45, 133.33333333333334, 533.3333333333334)"></rect><rect width="2.263157894736842" height="33.333333333333336" x="132.20175438596493" y="516.6666666666667" stroke="none" fill="#3b82f6" rx="1.131578947368421" transform="rotate(45, 133.33333333333334, 533.3333333333334)"></rect><rect width="33.333333333333336" height="2.263157894736842" x="183.33333333333334" y="532.2017543859649" stroke="none" fill="hsla(210, 9%, 59%, 1)" rx="1.131578947368421" transform="rotate(45, 200, 533.3333333333334)"></rect><rect width="2.263157894736842" height="33.333333333333336" x="198.8684210526316" y="516.6666666666667" stroke="none" fill="hsla(210, 9%, 59%, 1)" rx="1.131578947368421" transform="rotate(45, 200, 533.3333333333334)"></rect><rect width="33.333333333333336" height="2.263157894736842" x="250.00000000000003" y="532.2017543859649" stroke="none" fill="#3b82f6" rx="1.131578947368421" transform="rotate(45, 266.6666666666667, 533.3333333333334)"></rect><rect width="2.263157894736842" height="33.333333333333336" x="265.53508771929825" y="516.6666666666667" stroke="none" fill="#3b82f6" rx="1.131578947368421" transform="rotate(45, 266.6666666666667, 533.3333333333334)"></rect><rect width="33.333333333333336" height="2.263157894736842" x="316.6666666666667" y="532.2017543859649" stroke="none" fill="hsla(210, 9%, 59%, 1)" rx="1.131578947368421" transform="rotate(45, 333.33333333333337, 533.3333333333334)"></rect><rect width="2.263157894736842" height="33.333333333333336" x="332.20175438596493" y="516.6666666666667" stroke="none" fill="hsla(210, 9%, 59%, 1)" rx="1.131578947368421" transform="rotate(45, 333.33333333333337, 533.3333333333334)"></rect><rect width="33.333333333333336" height="2.263157894736842" x="383.33333333333337" y="532.2017543859649" stroke="none" fill="#3b82f6" rx="1.131578947368421" transform="rotate(45, 400.00000000000006, 533.3333333333334)"></rect><rect width="2.263157894736842" height="33.333333333333336" x="398.8684210526316" y="516.6666666666667" stroke="none" fill="#3b82f6" rx="1.131578947368421" transform="rotate(45, 400.00000000000006, 533.3333333333334)"></rect><rect width="33.333333333333336" height="2.263157894736842" x="450.00000000000006" y="532.2017543859649" stroke="none" fill="hsla(210, 9%, 59%, 1)" rx="1.131578947368421" transform="rotate(45, 466.66666666666674, 533.3333333333334)"></rect><rect width="2.263157894736842" height="33.333333333333336" x="465.5350877192983" y="516.6666666666667" stroke="none" fill="hsla(210, 9%, 59%, 1)" rx="1.131578947368421" transform="rotate(45, 466.66666666666674, 533.3333333333334)"></rect><rect width="33.333333333333336" height="2.263157894736842" x="516.6666666666667" y="532.2017543859649" stroke="none" fill="#3b82f6" rx="1.131578947368421" transform="rotate(45, 533.3333333333334, 533.3333333333334)"></rect><rect width="2.263157894736842" height="33.333333333333336" x="532.2017543859649" y="516.6666666666667" stroke="none" fill="#3b82f6" rx="1.131578947368421" transform="rotate(45, 533.3333333333334, 533.3333333333334)"></rect><rect width="33.333333333333336" height="2.263157894736842" x="583.3333333333334" y="532.2017543859649" stroke="none" fill="hsla(210, 9%, 59%, 1)" rx="1.131578947368421" transform="rotate(45, 600, 533.3333333333334)"></rect><rect width="2.263157894736842" height="33.333333333333336" x="598.8684210526316" y="516.6666666666667" stroke="none" fill="hsla(210, 9%, 59%, 1)" rx="1.131578947368421" transform="rotate(45, 600, 533.3333333333334)"></rect><rect width="33.333333333333336" height="2.263157894736842" x="650" y="532.2017543859649" stroke="none" fill="#3b82f6" rx="1.131578947368421" transform="rotate(45, 666.6666666666666, 533.3333333333334)"></rect><rect width="2.263157894736842" height="33.333333333333336" x="665.5350877192982" y="516.6666666666667" stroke="none" fill="#3b82f6" rx="1.131578947368421" transform="rotate(45, 666.6666666666666, 533.3333333333334)"></rect><rect width="33.333333333333336" height="2.263157894736842" x="716.6666666666666" y="532.2017543859649" stroke="none" fill="hsla(210, 9%, 59%, 1)" rx="1.131578947368421" transform="rotate(45, 733.3333333333333, 533.3333333333334)"></rect><rect width="2.263157894736842" height="33.333333333333336" x="732.2017543859648" y="516.6666666666667" stroke="none" fill="hsla(210, 9%, 59%, 1)" rx="1.131578947368421" transform="rotate(45, 733.3333333333333, 533.3333333333334)"></rect><rect width="33.333333333333336" height="2.263157894736842" x="783.3333333333333" y="532.2017543859649" stroke="none" fill="#3b82f6" rx="1.131578947368421" transform="rotate(45, 799.9999999999999, 533.3333333333334)"></rect><rect width="2.263157894736842" height="33.333333333333336" x="798.8684210526314" y="516.6666666666667" stroke="none" fill="#3b82f6" rx="1.131578947368421" transform="rotate(45, 799.9999999999999, 533.3333333333334)"></rect><rect width="33.333333333333336" height="2.263157894736842" x="-16.666666666666668" y="598.8684210526316" stroke="none" fill="hsla(210, 9%, 59%, 1)" rx="1.131578947368421" transform="rotate(45, 0, 600)"></rect><rect width="2.263157894736842" height="33.333333333333336" x="-1.131578947368421" y="583.3333333333334" stroke="none" fill="hsla(210, 9%, 59%, 1)" rx="1.131578947368421" transform="rotate(45, 0, 600)"></rect><rect width="33.333333333333336" height="2.263157894736842" x="50" y="598.8684210526316" stroke="none" fill="#3b82f6" rx="1.131578947368421" transform="rotate(45, 66.66666666666667, 600)"></rect><rect width="2.263157894736842" height="33.333333333333336" x="65.53508771929825" y="583.3333333333334" stroke="none" fill="#3b82f6" rx="1.131578947368421" transform="rotate(45, 66.66666666666667, 600)"></rect><rect width="33.333333333333336" height="2.263157894736842" x="116.66666666666667" y="598.8684210526316" stroke="none" fill="hsla(210, 9%, 59%, 1)" rx="1.131578947368421" transform="rotate(45, 133.33333333333334, 600)"></rect><rect width="2.263157894736842" height="33.333333333333336" x="132.20175438596493" y="583.3333333333334" stroke="none" fill="hsla(210, 9%, 59%, 1)" rx="1.131578947368421" transform="rotate(45, 133.33333333333334, 600)"></rect><rect width="33.333333333333336" height="2.263157894736842" x="183.33333333333334" y="598.8684210526316" stroke="none" fill="#3b82f6" rx="1.131578947368421" transform="rotate(45, 200, 600)"></rect><rect width="2.263157894736842" height="33.333333333333336" x="198.8684210526316" y="583.3333333333334" stroke="none" fill="#3b82f6" rx="1.131578947368421" transform="rotate(45, 200, 600)"></rect><rect width="33.333333333333336" height="2.263157894736842" x="250.00000000000003" y="598.8684210526316" stroke="none" fill="hsla(210, 9%, 59%, 1)" rx="1.131578947368421" transform="rotate(45, 266.6666666666667, 600)"></rect><rect width="2.263157894736842" height="33.333333333333336" x="265.53508771929825" y="583.3333333333334" stroke="none" fill="hsla(210, 9%, 59%, 1)" rx="1.131578947368421" transform="rotate(45, 266.6666666666667, 600)"></rect><rect width="33.333333333333336" height="2.263157894736842" x="316.6666666666667" y="598.8684210526316" stroke="none" fill="#3b82f6" rx="1.131578947368421" transform="rotate(45, 333.33333333333337, 600)"></rect><rect width="2.263157894736842" height="33.333333333333336" x="332.20175438596493" y="583.3333333333334" stroke="none" fill="#3b82f6" rx="1.131578947368421" transform="rotate(45, 333.33333333333337, 600)"></rect><rect width="33.333333333333336" height="2.263157894736842" x="383.33333333333337" y="598.8684210526316" stroke="none" fill="hsla(210, 9%, 59%, 1)" rx="1.131578947368421" transform="rotate(45, 400.00000000000006, 600)"></rect><rect width="2.263157894736842" height="33.333333333333336" x="398.8684210526316" y="583.3333333333334" stroke="none" fill="hsla(210, 9%, 59%, 1)" rx="1.131578947368421" transform="rotate(45, 400.00000000000006, 600)"></rect><rect width="33.333333333333336" height="2.263157894736842" x="450.00000000000006" y="598.8684210526316" stroke="none" fill="#3b82f6" rx="1.131578947368421" transform="rotate(45, 466.66666666666674, 600)"></rect><rect width="2.263157894736842" height="33.333333333333336" x="465.5350877192983" y="583.3333333333334" stroke="none" fill="#3b82f6" rx="1.131578947368421" transform="rotate(45, 466.66666666666674, 600)"></rect><rect width="33.333333333333336" height="2.263157894736842" x="516.6666666666667" y="598.8684210526316" stroke="none" fill="hsla(210, 9%, 59%, 1)" rx="1.131578947368421" transform="rotate(45, 533.3333333333334, 600)"></rect><rect width="2.263157894736842" height="33.333333333333336" x="532.2017543859649" y="583.3333333333334" stroke="none" fill="hsla(210, 9%, 59%, 1)" rx="1.131578947368421" transform="rotate(45, 533.3333333333334, 600)"></rect><rect width="33.333333333333336" height="2.263157894736842" x="583.3333333333334" y="598.8684210526316" stroke="none" fill="#3b82f6" rx="1.131578947368421" transform="rotate(45, 600, 600)"></rect><rect width="2.263157894736842" height="33.333333333333336" x="598.8684210526316" y="583.3333333333334" stroke="none" fill="#3b82f6" rx="1.131578947368421" transform="rotate(45, 600, 600)"></rect><rect width="33.333333333333336" height="2.263157894736842" x="650" y="598.8684210526316" stroke="none" fill="hsla(210, 9%, 59%, 1)" rx="1.131578947368421" transform="rotate(45, 666.6666666666666, 600)"></rect><rect width="2.263157894736842" height="33.333333333333336" x="665.5350877192982" y="583.3333333333334" stroke="none" fill="hsla(210, 9%, 59%, 1)" rx="1.131578947368421" transform="rotate(45, 666.6666666666666, 600)"></rect><rect width="33.333333333333336" height="2.263157894736842" x="716.6666666666666" y="598.8684210526316" stroke="none" fill="#3b82f6" rx="1.131578947368421" transform="rotate(45, 733.3333333333333, 600)"></rect><rect width="2.263157894736842" height="33.333333333333336" x="732.2017543859648" y="583.3333333333334" stroke="none" fill="#3b82f6" rx="1.131578947368421" transform="rotate(45, 733.3333333333333, 600)"></rect><rect width="33.333333333333336" height="2.263157894736842" x="783.3333333333333" y="598.8684210526316" stroke="none" fill="hsla(210, 9%, 59%, 1)" rx="1.131578947368421" transform="rotate(45, 799.9999999999999, 600)"></rect><rect width="2.263157894736842" height="33.333333333333336" x="798.8684210526314" y="583.3333333333334" stroke="none" fill="hsla(210, 9%, 59%, 1)" rx="1.131578947368421" transform="rotate(45, 799.9999999999999, 600)"></rect><rect width="33.333333333333336" height="2.263157894736842" x="-16.666666666666668" y="665.5350877192982" stroke="none" fill="#3b82f6" rx="1.131578947368421" transform="rotate(45, 0, 666.6666666666666)"></rect><rect width="2.263157894736842" height="33.333333333333336" x="-1.131578947368421" y="650" stroke="none" fill="#3b82f6" rx="1.131578947368421" transform="rotate(45, 0, 666.6666666666666)"></rect><rect width="33.333333333333336" height="2.263157894736842" x="50" y="665.5350877192982" stroke="none" fill="hsla(210, 9%, 59%, 1)" rx="1.131578947368421" transform="rotate(45, 66.66666666666667, 666.6666666666666)"></rect><rect width="2.263157894736842" height="33.333333333333336" x="65.53508771929825" y="650" stroke="none" fill="hsla(210, 9%, 59%, 1)" rx="1.131578947368421" transform="rotate(45, 66.66666666666667, 666.6666666666666)"></rect><rect width="33.333333333333336" height="2.263157894736842" x="116.66666666666667" y="665.5350877192982" stroke="none" fill="#3b82f6" rx="1.131578947368421" transform="rotate(45, 133.33333333333334, 666.6666666666666)"></rect><rect width="2.263157894736842" height="33.333333333333336" x="132.20175438596493" y="650" stroke="none" fill="#3b82f6" rx="1.131578947368421" transform="rotate(45, 133.33333333333334, 666.6666666666666)"></rect><rect width="33.333333333333336" height="2.263157894736842" x="183.33333333333334" y="665.5350877192982" stroke="none" fill="hsla(210, 9%, 59%, 1)" rx="1.131578947368421" transform="rotate(45, 200, 666.6666666666666)"></rect><rect width="2.263157894736842" height="33.333333333333336" x="198.8684210526316" y="650" stroke="none" fill="hsla(210, 9%, 59%, 1)" rx="1.131578947368421" transform="rotate(45, 200, 666.6666666666666)"></rect><rect width="33.333333333333336" height="2.263157894736842" x="250.00000000000003" y="665.5350877192982" stroke="none" fill="#3b82f6" rx="1.131578947368421" transform="rotate(45, 266.6666666666667, 666.6666666666666)"></rect><rect width="2.263157894736842" height="33.333333333333336" x="265.53508771929825" y="650" stroke="none" fill="#3b82f6" rx="1.131578947368421" transform="rotate(45, 266.6666666666667, 666.6666666666666)"></rect><rect width="33.333333333333336" height="2.263157894736842" x="316.6666666666667" y="665.5350877192982" stroke="none" fill="hsla(210, 9%, 59%, 1)" rx="1.131578947368421" transform="rotate(45, 333.33333333333337, 666.6666666666666)"></rect><rect width="2.263157894736842" height="33.333333333333336" x="332.20175438596493" y="650" stroke="none" fill="hsla(210, 9%, 59%, 1)" rx="1.131578947368421" transform="rotate(45, 333.33333333333337, 666.6666666666666)"></rect><rect width="33.333333333333336" height="2.263157894736842" x="383.33333333333337" y="665.5350877192982" stroke="none" fill="#3b82f6" rx="1.131578947368421" transform="rotate(45, 400.00000000000006, 666.6666666666666)"></rect><rect width="2.263157894736842" height="33.333333333333336" x="398.8684210526316" y="650" stroke="none" fill="#3b82f6" rx="1.131578947368421" transform="rotate(45, 400.00000000000006, 666.6666666666666)"></rect><rect width="33.333333333333336" height="2.263157894736842" x="450.00000000000006" y="665.5350877192982" stroke="none" fill="hsla(210, 9%, 59%, 1)" rx="1.131578947368421" transform="rotate(45, 466.66666666666674, 666.6666666666666)"></rect><rect width="2.263157894736842" height="33.333333333333336" x="465.5350877192983" y="650" stroke="none" fill="hsla(210, 9%, 59%, 1)" rx="1.131578947368421" transform="rotate(45, 466.66666666666674, 666.6666666666666)"></rect><rect width="33.333333333333336" height="2.263157894736842" x="516.6666666666667" y="665.5350877192982" stroke="none" fill="#3b82f6" rx="1.131578947368421" transform="rotate(45, 533.3333333333334, 666.6666666666666)"></rect><rect width="2.263157894736842" height="33.333333333333336" x="532.2017543859649" y="650" stroke="none" fill="#3b82f6" rx="1.131578947368421" transform="rotate(45, 533.3333333333334, 666.6666666666666)"></rect><rect width="33.333333333333336" height="2.263157894736842" x="583.3333333333334" y="665.5350877192982" stroke="none" fill="hsla(210, 9%, 59%, 1)" rx="1.131578947368421" transform="rotate(45, 600, 666.6666666666666)"></rect><rect width="2.263157894736842" height="33.333333333333336" x="598.8684210526316" y="650" stroke="none" fill="hsla(210, 9%, 59%, 1)" rx="1.131578947368421" transform="rotate(45, 600, 666.6666666666666)"></rect><rect width="33.333333333333336" height="2.263157894736842" x="650" y="665.5350877192982" stroke="none" fill="#3b82f6" rx="1.131578947368421" transform="rotate(45, 666.6666666666666, 666.6666666666666)"></rect><rect width="2.263157894736842" height="33.333333333333336" x="665.5350877192982" y="650" stroke="none" fill="#3b82f6" rx="1.131578947368421" transform="rotate(45, 666.6666666666666, 666.6666666666666)"></rect><rect width="33.333333333333336" height="2.263157894736842" x="716.6666666666666" y="665.5350877192982" stroke="none" fill="hsla(210, 9%, 59%, 1)" rx="1.131578947368421" transform="rotate(45, 733.3333333333333, 666.6666666666666)"></rect><rect width="2.263157894736842" height="33.333333333333336" x="732.2017543859648" y="650" stroke="none" fill="hsla(210, 9%, 59%, 1)" rx="1.131578947368421" transform="rotate(45, 733.3333333333333, 666.6666666666666)"></rect><rect width="33.333333333333336" height="2.263157894736842" x="783.3333333333333" y="665.5350877192982" stroke="none" fill="#3b82f6" rx="1.131578947368421" transform="rotate(45, 799.9999999999999, 666.6666666666666)"></rect><rect width="2.263157894736842" height="33.333333333333336" x="798.8684210526314" y="650" stroke="none" fill="#3b82f6" rx="1.131578947368421" transform="rotate(45, 799.9999999999999, 666.6666666666666)"></rect><rect width="33.333333333333336" height="2.263157894736842" x="-16.666666666666668" y="732.2017543859648" stroke="none" fill="hsla(210, 9%, 59%, 1)" rx="1.131578947368421" transform="rotate(45, 0, 733.3333333333333)"></rect><rect width="2.263157894736842" height="33.333333333333336" x="-1.131578947368421" y="716.6666666666666" stroke="none" fill="hsla(210, 9%, 59%, 1)" rx="1.131578947368421" transform="rotate(45, 0, 733.3333333333333)"></rect><rect width="33.333333333333336" height="2.263157894736842" x="50" y="732.2017543859648" stroke="none" fill="#3b82f6" rx="1.131578947368421" transform="rotate(45, 66.66666666666667, 733.3333333333333)"></rect><rect width="2.263157894736842" height="33.333333333333336" x="65.53508771929825" y="716.6666666666666" stroke="none" fill="#3b82f6" rx="1.131578947368421" transform="rotate(45, 66.66666666666667, 733.3333333333333)"></rect><rect width="33.333333333333336" height="2.263157894736842" x="116.66666666666667" y="732.2017543859648" stroke="none" fill="hsla(210, 9%, 59%, 1)" rx="1.131578947368421" transform="rotate(45, 133.33333333333334, 733.3333333333333)"></rect><rect width="2.263157894736842" height="33.333333333333336" x="132.20175438596493" y="716.6666666666666" stroke="none" fill="hsla(210, 9%, 59%, 1)" rx="1.131578947368421" transform="rotate(45, 133.33333333333334, 733.3333333333333)"></rect><rect width="33.333333333333336" height="2.263157894736842" x="183.33333333333334" y="732.2017543859648" stroke="none" fill="#3b82f6" rx="1.131578947368421" transform="rotate(45, 200, 733.3333333333333)"></rect><rect width="2.263157894736842" height="33.333333333333336" x="198.8684210526316" y="716.6666666666666" stroke="none" fill="#3b82f6" rx="1.131578947368421" transform="rotate(45, 200, 733.3333333333333)"></rect><rect width="33.333333333333336" height="2.263157894736842" x="250.00000000000003" y="732.2017543859648" stroke="none" fill="hsla(210, 9%, 59%, 1)" rx="1.131578947368421" transform="rotate(45, 266.6666666666667, 733.3333333333333)"></rect><rect width="2.263157894736842" height="33.333333333333336" x="265.53508771929825" y="716.6666666666666" stroke="none" fill="hsla(210, 9%, 59%, 1)" rx="1.131578947368421" transform="rotate(45, 266.6666666666667, 733.3333333333333)"></rect><rect width="33.333333333333336" height="2.263157894736842" x="316.6666666666667" y="732.2017543859648" stroke="none" fill="#3b82f6" rx="1.131578947368421" transform="rotate(45, 333.33333333333337, 733.3333333333333)"></rect><rect width="2.263157894736842" height="33.333333333333336" x="332.20175438596493" y="716.6666666666666" stroke="none" fill="#3b82f6" rx="1.131578947368421" transform="rotate(45, 333.33333333333337, 733.3333333333333)"></rect><rect width="33.333333333333336" height="2.263157894736842" x="383.33333333333337" y="732.2017543859648" stroke="none" fill="hsla(210, 9%, 59%, 1)" rx="1.131578947368421" transform="rotate(45, 400.00000000000006, 733.3333333333333)"></rect><rect width="2.263157894736842" height="33.333333333333336" x="398.8684210526316" y="716.6666666666666" stroke="none" fill="hsla(210, 9%, 59%, 1)" rx="1.131578947368421" transform="rotate(45, 400.00000000000006, 733.3333333333333)"></rect><rect width="33.333333333333336" height="2.263157894736842" x="450.00000000000006" y="732.2017543859648" stroke="none" fill="#3b82f6" rx="1.131578947368421" transform="rotate(45, 466.66666666666674, 733.3333333333333)"></rect><rect width="2.263157894736842" height="33.333333333333336" x="465.5350877192983" y="716.6666666666666" stroke="none" fill="#3b82f6" rx="1.131578947368421" transform="rotate(45, 466.66666666666674, 733.3333333333333)"></rect><rect width="33.333333333333336" height="2.263157894736842" x="516.6666666666667" y="732.2017543859648" stroke="none" fill="hsla(210, 9%, 59%, 1)" rx="1.131578947368421" transform="rotate(45, 533.3333333333334, 733.3333333333333)"></rect><rect width="2.263157894736842" height="33.333333333333336" x="532.2017543859649" y="716.6666666666666" stroke="none" fill="hsla(210, 9%, 59%, 1)" rx="1.131578947368421" transform="rotate(45, 533.3333333333334, 733.3333333333333)"></rect><rect width="33.333333333333336" height="2.263157894736842" x="583.3333333333334" y="732.2017543859648" stroke="none" fill="#3b82f6" rx="1.131578947368421" transform="rotate(45, 600, 733.3333333333333)"></rect><rect width="2.263157894736842" height="33.333333333333336" x="598.8684210526316" y="716.6666666666666" stroke="none" fill="#3b82f6" rx="1.131578947368421" transform="rotate(45, 600, 733.3333333333333)"></rect><rect width="33.333333333333336" height="2.263157894736842" x="650" y="732.2017543859648" stroke="none" fill="hsla(210, 9%, 59%, 1)" rx="1.131578947368421" transform="rotate(45, 666.6666666666666, 733.3333333333333)"></rect><rect width="2.263157894736842" height="33.333333333333336" x="665.5350877192982" y="716.6666666666666" stroke="none" fill="hsla(210, 9%, 59%, 1)" rx="1.131578947368421" transform="rotate(45, 666.6666666666666, 733.3333333333333)"></rect><rect width="33.333333333333336" height="2.263157894736842" x="716.6666666666666" y="732.2017543859648" stroke="none" fill="#3b82f6" rx="1.131578947368421" transform="rotate(45, 733.3333333333333, 733.3333333333333)"></rect><rect width="2.263157894736842" height="33.333333333333336" x="732.2017543859648" y="716.6666666666666" stroke="none" fill="#3b82f6" rx="1.131578947368421" transform="rotate(45, 733.3333333333333, 733.3333333333333)"></rect><rect width="33.333333333333336" height="2.263157894736842" x="783.3333333333333" y="732.2017543859648" stroke="none" fill="hsla(210, 9%, 59%, 1)" rx="1.131578947368421" transform="rotate(45, 799.9999999999999, 733.3333333333333)"></rect><rect width="2.263157894736842" height="33.333333333333336" x="798.8684210526314" y="716.6666666666666" stroke="none" fill="hsla(210, 9%, 59%, 1)" rx="1.131578947368421" transform="rotate(45, 799.9999999999999, 733.3333333333333)"></rect><rect width="33.333333333333336" height="2.263157894736842" x="-16.666666666666668" y="798.8684210526314" stroke="none" fill="#3b82f6" rx="1.131578947368421" transform="rotate(45, 0, 799.9999999999999)"></rect><rect width="2.263157894736842" height="33.333333333333336" x="-1.131578947368421" y="783.3333333333333" stroke="none" fill="#3b82f6" rx="1.131578947368421" transform="rotate(45, 0, 799.9999999999999)"></rect><rect width="33.333333333333336" height="2.263157894736842" x="50" y="798.8684210526314" stroke="none" fill="hsla(210, 9%, 59%, 1)" rx="1.131578947368421" transform="rotate(45, 66.66666666666667, 799.9999999999999)"></rect><rect width="2.263157894736842" height="33.333333333333336" x="65.53508771929825" y="783.3333333333333" stroke="none" fill="hsla(210, 9%, 59%, 1)" rx="1.131578947368421" transform="rotate(45, 66.66666666666667, 799.9999999999999)"></rect><rect width="33.333333333333336" height="2.263157894736842" x="116.66666666666667" y="798.8684210526314" stroke="none" fill="#3b82f6" rx="1.131578947368421" transform="rotate(45, 133.33333333333334, 799.9999999999999)"></rect><rect width="2.263157894736842" height="33.333333333333336" x="132.20175438596493" y="783.3333333333333" stroke="none" fill="#3b82f6" rx="1.131578947368421" transform="rotate(45, 133.33333333333334, 799.9999999999999)"></rect><rect width="33.333333333333336" height="2.263157894736842" x="183.33333333333334" y="798.8684210526314" stroke="none" fill="hsla(210, 9%, 59%, 1)" rx="1.131578947368421" transform="rotate(45, 200, 799.9999999999999)"></rect><rect width="2.263157894736842" height="33.333333333333336" x="198.8684210526316" y="783.3333333333333" stroke="none" fill="hsla(210, 9%, 59%, 1)" rx="1.131578947368421" transform="rotate(45, 200, 799.9999999999999)"></rect><rect width="33.333333333333336" height="2.263157894736842" x="250.00000000000003" y="798.8684210526314" stroke="none" fill="#3b82f6" rx="1.131578947368421" transform="rotate(45, 266.6666666666667, 799.9999999999999)"></rect><rect width="2.263157894736842" height="33.333333333333336" x="265.53508771929825" y="783.3333333333333" stroke="none" fill="#3b82f6" rx="1.131578947368421" transform="rotate(45, 266.6666666666667, 799.9999999999999)"></rect><rect width="33.333333333333336" height="2.263157894736842" x="316.6666666666667" y="798.8684210526314" stroke="none" fill="hsla(210, 9%, 59%, 1)" rx="1.131578947368421" transform="rotate(45, 333.33333333333337, 799.9999999999999)"></rect><rect width="2.263157894736842" height="33.333333333333336" x="332.20175438596493" y="783.3333333333333" stroke="none" fill="hsla(210, 9%, 59%, 1)" rx="1.131578947368421" transform="rotate(45, 333.33333333333337, 799.9999999999999)"></rect><rect width="33.333333333333336" height="2.263157894736842" x="383.33333333333337" y="798.8684210526314" stroke="none" fill="#3b82f6" rx="1.131578947368421" transform="rotate(45, 400.00000000000006, 799.9999999999999)"></rect><rect width="2.263157894736842" height="33.333333333333336" x="398.8684210526316" y="783.3333333333333" stroke="none" fill="#3b82f6" rx="1.131578947368421" transform="rotate(45, 400.00000000000006, 799.9999999999999)"></rect><rect width="33.333333333333336" height="2.263157894736842" x="450.00000000000006" y="798.8684210526314" stroke="none" fill="hsla(210, 9%, 59%, 1)" rx="1.131578947368421" transform="rotate(45, 466.66666666666674, 799.9999999999999)"></rect><rect width="2.263157894736842" height="33.333333333333336" x="465.5350877192983" y="783.3333333333333" stroke="none" fill="hsla(210, 9%, 59%, 1)" rx="1.131578947368421" transform="rotate(45, 466.66666666666674, 799.9999999999999)"></rect><rect width="33.333333333333336" height="2.263157894736842" x="516.6666666666667" y="798.8684210526314" stroke="none" fill="#3b82f6" rx="1.131578947368421" transform="rotate(45, 533.3333333333334, 799.9999999999999)"></rect><rect width="2.263157894736842" height="33.333333333333336" x="532.2017543859649" y="783.3333333333333" stroke="none" fill="#3b82f6" rx="1.131578947368421" transform="rotate(45, 533.3333333333334, 799.9999999999999)"></rect><rect width="33.333333333333336" height="2.263157894736842" x="583.3333333333334" y="798.8684210526314" stroke="none" fill="hsla(210, 9%, 59%, 1)" rx="1.131578947368421" transform="rotate(45, 600, 799.9999999999999)"></rect><rect width="2.263157894736842" height="33.333333333333336" x="598.8684210526316" y="783.3333333333333" stroke="none" fill="hsla(210, 9%, 59%, 1)" rx="1.131578947368421" transform="rotate(45, 600, 799.9999999999999)"></rect><rect width="33.333333333333336" height="2.263157894736842" x="650" y="798.8684210526314" stroke="none" fill="#3b82f6" rx="1.131578947368421" transform="rotate(45, 666.6666666666666, 799.9999999999999)"></rect><rect width="2.263157894736842" height="33.333333333333336" x="665.5350877192982" y="783.3333333333333" stroke="none" fill="#3b82f6" rx="1.131578947368421" transform="rotate(45, 666.6666666666666, 799.9999999999999)"></rect><rect width="33.333333333333336" height="2.263157894736842" x="716.6666666666666" y="798.8684210526314" stroke="none" fill="hsla(210, 9%, 59%, 1)" rx="1.131578947368421" transform="rotate(45, 733.3333333333333, 799.9999999999999)"></rect><rect width="2.263157894736842" height="33.333333333333336" x="732.2017543859648" y="783.3333333333333" stroke="none" fill="hsla(210, 9%, 59%, 1)" rx="1.131578947368421" transform="rotate(45, 733.3333333333333, 799.9999999999999)"></rect><rect width="33.333333333333336" height="2.263157894736842" x="783.3333333333333" y="798.8684210526314" stroke="none" fill="#3b82f6" rx="1.131578947368421" transform="rotate(45, 799.9999999999999, 799.9999999999999)"></rect><rect width="2.263157894736842" height="33.333333333333336" x="798.8684210526314" y="783.3333333333333" stroke="none" fill="#3b82f6" rx="1.131578947368421" transform="rotate(45, 799.9999999999999, 799.9999999999999)"></rect></g></svg>